<svg width="132" height="31" viewBox="0 0 132 31" fill="none" xmlns="http://www.w3.org/2000/svg">
<path d="M17.5812 0.875288C18.1441 0.875288 18.7015 0.987463 19.2215 1.2054C19.7415 1.42333 20.2138 1.74275 20.6115 2.14537C21.0092 2.54799 21.3245 3.02592 21.5393 3.55181C21.754 4.07769 21.8641 4.64122 21.8632 5.21015V25.6061C21.8866 26.1897 21.7931 26.7721 21.5883 27.3182C21.3835 27.8644 21.0717 28.3631 20.6714 28.7844C20.2711 29.2057 19.7908 29.5409 19.2591 29.7699C18.7275 29.9988 18.1556 30.1169 17.5777 30.1169C16.9998 30.1169 16.4278 29.9988 15.8962 29.7699C15.3646 29.5409 14.8842 29.2057 14.484 28.7844C14.0837 28.3631 13.7718 27.8644 13.567 27.3182C13.3622 26.7721 13.2687 26.1897 13.2922 25.6061V16.3222L13.2569 16.3865C12.7088 17.3857 12.0651 18.3281 11.3349 19.2002C10.1699 20.5464 8.79805 21.6942 7.272 22.5996V24.3349C7.272 25.2819 6.89978 26.1902 6.23721 26.8598C5.57465 27.5295 4.67603 27.9057 3.73903 27.9057C2.80202 27.9057 1.9034 27.5295 1.24084 26.8598C0.578277 26.1902 0.206055 25.2819 0.206055 24.3349L0.206055 12.1945C0.206055 11.2475 0.578277 10.3392 1.24084 9.6696C1.9034 8.99996 2.80202 8.62376 3.73903 8.62376C4.67603 8.62376 5.57465 8.99996 6.23721 9.6696C6.89978 10.3392 7.272 11.2475 7.272 12.1945V21.814C8.49841 20.8864 9.58599 19.7848 10.5011 18.5432C11.9121 16.5901 12.851 14.3302 13.2427 11.9445V5.21015C13.2427 4.63665 13.3552 4.06885 13.5739 3.53964C13.7925 3.01043 14.1129 2.53032 14.5164 2.12713C14.9199 1.72394 15.3986 1.40568 15.9247 1.1908C16.4508 0.975916 17.0138 0.868675 17.5812 0.875288Z" fill="white"/>
<path d="M47.585 26.3265C48.9406 26.3312 50.2465 25.8372 51.2341 24.9461C51.7093 24.5227 52.086 24.0078 52.3394 23.4349C52.6022 22.8577 52.7363 22.2341 52.7331 21.6041V11.1641H50.6436V17.2668C50.6451 17.7651 50.5065 18.2545 50.2423 18.6835C49.972 19.1113 49.5879 19.4624 49.1294 19.7006C48.6643 19.9422 48.1441 20.0695 47.6153 20.0712C47.0848 20.0747 46.5626 19.9444 46.1011 19.6934C45.6467 19.4434 45.2643 19.0889 44.9882 18.6617C44.7181 18.2425 44.574 17.7597 44.5718 17.2668V11.1641H42.4444V17.3976C42.44 18.0097 42.5771 18.6151 42.8457 19.1703C43.1175 19.7236 43.5039 20.218 43.9813 20.6233C44.4561 21.0493 45.0111 21.3847 45.6166 21.6114C46.2425 21.8513 46.911 21.9722 47.585 21.9674C48.1632 21.9664 48.7361 21.8604 49.2733 21.655C49.7822 21.4746 50.2482 21.1978 50.6436 20.8413V21.5678C50.6459 21.9397 50.5686 22.3082 50.4164 22.6503C50.2717 22.9911 50.0492 23.2965 49.7654 23.5439C49.4789 23.8184 49.1389 24.036 48.7648 24.1844C48.3907 24.3327 47.9898 24.4089 47.585 24.4085C47.0702 24.4096 46.5639 24.2819 46.1163 24.038C45.6382 23.7727 45.2332 23.4016 44.9352 22.9554L43.0804 23.9144C43.6007 24.6473 44.2864 25.2582 45.0866 25.7017C45.8493 26.1132 46.71 26.3285 47.585 26.3265Z" fill="white"/>
<path d="M33.0535 7.375V12.2064C33.4265 11.8474 33.8698 11.5703 34.3551 11.3927C34.8634 11.1881 35.4056 11.0821 35.9531 11.0802C36.5938 11.0764 37.2293 11.1947 37.826 11.429C38.3989 11.6612 38.9237 11.9987 39.3734 12.4243C39.8294 12.8296 40.1984 13.324 40.458 13.8773C40.6848 14.3596 40.808 14.8844 40.8196 15.4176V22.5375H38.8383V15.5047C38.7978 15.1151 38.6691 14.7398 38.4623 14.4077C38.2033 13.9793 37.84 13.6242 37.4066 13.376C36.9658 13.125 36.467 12.9947 35.9604 12.9983C35.4549 12.9974 34.9575 13.1249 34.5142 13.3688C34.0769 13.6052 33.7119 13.9568 33.4585 14.3859C33.2027 14.8134 33.0701 15.3039 33.0752 15.8026V21.9054V22.5375H31.0723V7.375H33.0535Z" fill="white"/>
<path d="M60.6034 11.1641C61.3506 11.1631 62.0902 11.3138 62.7777 11.6073C63.4679 11.8929 64.0902 12.3212 64.6041 12.8641C65.1288 13.4042 65.5447 14.0406 65.829 14.7386C66.1262 15.4467 66.2766 16.208 66.2711 16.9762C66.2764 17.7397 66.126 18.4963 65.829 19.1994C65.5409 19.891 65.1254 20.5219 64.6041 21.0593C64.0862 21.5924 63.4679 22.0171 62.7849 22.3089C62.0979 22.6046 61.3583 22.7579 60.6106 22.7593C59.8631 22.7894 59.1188 22.6452 58.4363 22.3379C57.8413 22.0322 57.3233 21.595 56.9215 21.0593L56.8853 21.0157V26.3265H54.8994V11.1714H56.8853V13.0676C57.3434 12.5005 57.9102 12.0311 58.5523 11.6872C59.1808 11.3415 59.8865 11.1615 60.6034 11.1641ZM60.6034 13.2274C60.1059 13.2211 59.6125 13.3176 59.1538 13.5107C58.711 13.6952 58.3112 13.9698 57.9797 14.3172C57.6478 14.6723 57.3804 15.0829 57.1897 15.5305C56.9955 15.99 56.8968 16.4844 56.8998 16.9835C56.8932 17.4829 56.992 17.9781 57.1897 18.4365C57.3805 18.8819 57.6479 19.2901 57.9797 19.6426C58.3134 19.9891 58.7125 20.2657 59.1538 20.4563C59.6018 20.6527 60.0854 20.7541 60.5744 20.7541C61.0633 20.7541 61.547 20.6527 61.9949 20.4563C62.4363 20.2657 62.8354 19.9891 63.1691 19.6426C63.5012 19.2932 63.7644 18.884 63.9446 18.4365C64.1373 17.9768 64.2335 17.4822 64.2273 16.9835C64.229 16.4853 64.1329 15.9915 63.9446 15.5305C63.7644 15.0808 63.5013 14.6692 63.1691 14.3172C62.8461 13.9731 62.4564 13.6987 62.0239 13.5107C61.5743 13.3214 61.0911 13.2251 60.6034 13.2274Z" fill="white"/>
<path d="M73.5959 11.1641C74.341 11.1655 75.0788 11.3106 75.7689 11.5914C76.4553 11.869 77.0768 12.2858 77.5941 12.8155C78.1254 13.3323 78.5473 13.9506 78.8348 14.6337C79.1222 15.3169 79.2693 16.0508 79.2673 16.792C79.2669 17.0808 79.2427 17.3691 79.1949 17.6539H70.0757C70.0926 18.0619 70.2313 18.4555 70.4741 18.7838C70.724 19.1607 71.032 19.4957 71.3867 19.7761C72.019 20.2677 72.8026 20.5238 73.6032 20.5005C74.1364 20.5294 74.6694 20.4376 75.1622 20.2319C75.6551 20.0262 76.0952 19.712 76.4497 19.3126H78.7675C78.1649 20.2951 77.3539 21.1333 76.3918 21.768C75.538 22.2772 74.561 22.5428 73.5669 22.5358C72.8202 22.5368 72.081 22.3865 71.394 22.0939C70.7115 21.8057 70.0916 21.3875 69.5687 20.8626C69.0414 20.3389 68.623 19.7161 68.3373 19.0301C68.0448 18.3431 67.8945 17.6039 67.8955 16.8572C67.8961 16.1106 68.0463 15.3717 68.3373 14.6842C68.6192 13.994 69.0381 13.3681 69.5687 12.8445C70.0821 12.3134 70.7016 11.8964 71.3867 11.6204C72.0865 11.3263 72.8369 11.1713 73.5959 11.1641ZM75.2618 13.4456C74.7592 13.1945 74.2049 13.0637 73.643 13.0637C73.081 13.0637 72.5268 13.1945 72.0241 13.4456C71.5195 13.6618 71.0766 14 70.7352 14.4299C70.3938 14.8598 70.1647 15.3678 70.0685 15.9083H77.1233C77.0404 15.3734 76.8273 14.867 76.5027 14.4338C76.1781 14.0006 75.752 13.6538 75.2618 13.4239V13.4456Z" fill="white"/>
<path d="M124.755 22.5279L124.698 12.2461H122.732V18.0452C122.738 18.5209 122.607 18.9888 122.352 19.3962C122.101 19.8055 121.739 20.1408 121.305 20.3662C120.865 20.5988 120.372 20.7204 119.871 20.7196C119.368 20.7229 118.873 20.5987 118.436 20.3593C118.003 20.1245 117.638 19.7886 117.375 19.3824C117.115 18.9842 116.978 18.5228 116.98 18.0521V12.2461H115.008V18.1768C115.006 18.7603 115.136 19.3371 115.388 19.8674C115.643 20.3947 116.006 20.8662 116.457 21.2531C116.905 21.6594 117.428 21.9813 117.999 22.2023C118.591 22.4257 119.221 22.5385 119.856 22.5348C120.399 22.5329 120.936 22.4343 121.441 22.2438C121.922 22.0694 122.361 21.8031 122.732 21.4609V22.514C122.732 22.514 123.385 22.514 124.755 22.5279Z" fill="white"/>
<path d="M96.3522 22.5356C97.2407 22.5356 98.1169 22.3315 98.9112 21.9394C99.7056 21.5474 100.396 20.9783 100.928 20.2772L99.1435 19.2783C98.7935 19.6674 98.3637 19.9788 97.8826 20.1922C97.4014 20.4056 96.8798 20.5159 96.3522 20.5161C95.8602 20.519 95.3728 20.423 94.9199 20.2338C94.4809 20.0531 94.0817 19.79 93.7446 19.4593C93.403 19.1205 93.1312 18.7199 92.9439 18.2794C92.7451 17.8308 92.6425 17.3466 92.6425 16.8571C92.6425 16.3676 92.7451 15.8834 92.9439 15.4348C93.1314 14.9965 93.4033 14.5983 93.7446 14.2621C94.0866 13.9241 94.493 13.6561 94.9405 13.4734C95.3881 13.2908 95.8678 13.1973 96.3522 13.1981C96.8806 13.1977 97.403 13.3086 97.8844 13.5234C98.3658 13.7381 98.7951 14.0516 99.1435 14.4431L100.928 13.4225C100.396 12.7214 99.7056 12.1523 98.9112 11.7603C98.1169 11.3682 97.2407 11.1641 96.3522 11.1641C95.5947 11.1604 94.8445 11.3108 94.1486 11.6057C93.4607 11.8975 92.8352 12.3151 92.3049 12.8362C91.7833 13.3586 91.3693 13.9756 91.0855 14.653C90.6468 15.6941 90.5285 16.8393 90.7454 17.9462C90.9622 19.053 91.5045 20.0726 92.3049 20.878C92.8332 21.4015 93.4592 21.8193 94.1486 22.1085C94.8456 22.3985 95.5957 22.5438 96.3522 22.5356Z" fill="white"/>
<path d="M107.123 11.1641C107.883 11.1626 108.636 11.3117 109.339 11.6028C110.028 11.8835 110.654 12.2992 111.18 12.8254C111.706 13.3516 112.122 13.9777 112.403 14.667C112.694 15.3692 112.843 16.1222 112.842 16.8823C112.839 17.6235 112.69 18.3569 112.403 19.0402C112.117 19.7179 111.701 20.3335 111.18 20.8528C110.651 21.3797 110.026 21.7998 109.339 22.0899C108.638 22.3863 107.884 22.538 107.123 22.5359C106.381 22.5344 105.647 22.3827 104.965 22.0899C103.602 21.493 102.513 20.4041 101.916 19.0402C101.623 18.3584 101.471 17.6244 101.47 16.8823C101.468 16.1214 101.619 15.3678 101.916 14.667C102.202 13.9888 102.614 13.3712 103.131 12.8472C103.651 12.326 104.266 11.9107 104.944 11.6244C105.632 11.327 106.373 11.1705 107.123 11.1641ZM107.123 13.1637C106.642 13.1572 106.164 13.2497 105.72 13.4353C105.276 13.6208 104.875 13.8956 104.541 14.2426C104.193 14.5864 103.919 14.9976 103.735 15.451C103.541 15.9057 103.441 16.395 103.441 16.8895C103.437 17.3844 103.538 17.8744 103.735 18.3281C103.926 18.7711 104.2 19.1738 104.541 19.5149C104.881 19.8544 105.281 20.1276 105.721 20.3205C106.173 20.5215 106.664 20.6221 107.159 20.6154C107.654 20.6151 108.143 20.5148 108.598 20.3205C109.023 20.1229 109.403 19.8388 109.713 19.4861C110.045 19.1408 110.313 18.7388 110.504 18.2993C110.699 17.8452 110.797 17.3551 110.792 16.8608C110.794 16.3667 110.696 15.8774 110.504 15.4222C110.32 14.9724 110.051 14.5622 109.713 14.2138C109.384 13.8666 108.984 13.5943 108.54 13.4154C108.088 13.2421 107.607 13.1567 107.123 13.1637Z" fill="white"/>
<path d="M130.07 22.5375V13.1609H131.794V11.1184H130.07V7.375H128.111V11.1184H126.379V13.1609H128.111V22.5375H130.07Z" fill="white"/>
<path d="M85.3623 22.528C86.4434 22.5678 87.5043 22.2301 88.3598 21.5736C88.7309 21.3005 89.0323 20.9451 89.24 20.5358C89.4477 20.1265 89.5559 19.6747 89.5559 19.2165C89.5559 17.6066 88.5202 16.5389 86.449 16.0135L84.8955 15.6014C83.7724 15.3411 83.2108 14.8784 83.2108 14.2927C83.2193 14.0943 83.2795 13.9013 83.3856 13.7328C83.4917 13.5643 83.64 13.4259 83.8162 13.3311C84.2272 13.0701 84.7065 12.9343 85.1946 12.9407C85.7186 12.933 86.2351 13.0653 86.6897 13.3239C87.1239 13.5571 87.4658 13.9292 87.6596 14.3795L89.4027 13.6565C89.1031 12.8966 88.553 12.2596 87.842 11.8489C87.09 11.3919 86.2224 11.1562 85.3404 11.1693C84.2728 11.1195 83.2195 11.4277 82.3502 12.0441C81.9804 12.3127 81.6817 12.6661 81.4798 13.074C81.2778 13.482 81.1786 13.9324 81.1906 14.3867C81.1906 15.8665 82.2044 16.8691 84.2319 17.3945L86.0187 17.85C87.0397 18.1681 87.5502 18.6742 87.5502 19.3539C87.5412 19.5578 87.4785 19.7557 87.3685 19.9282C87.2585 20.1007 87.1049 20.2417 86.923 20.3372C86.4561 20.6264 85.9124 20.7699 85.3623 20.7493C84.7829 20.7493 84.2194 20.5614 83.7578 20.2143C83.2458 19.8361 82.8557 19.3187 82.6347 18.7249L80.8916 19.484C81.2229 20.3912 81.832 21.173 82.6336 21.72C83.4352 22.2671 84.3893 22.5521 85.3623 22.5352V22.528Z" fill="white"/>
</svg>
