<svg width="16" height="17" viewBox="0 0 16 17" fill="none" xmlns="http://www.w3.org/2000/svg">
<path d="M8.03043 16.3588C11.3862 16.3588 14.3638 14.1898 15.4401 11.0076C15.5058 10.8139 15.4352 10.5999 15.2674 10.4826C15.1002 10.3662 14.875 10.3733 14.7149 10.5019C13.7227 11.3017 12.5254 11.7243 11.2531 11.7243C8.20661 11.7243 5.69783 9.24617 5.69783 6.19978C5.69783 4.29488 6.69558 2.51708 8.31588 1.49605C8.48941 1.38678 8.54972 1.17504 8.49261 0.978125C8.43596 0.781197 8.2354 0.644531 8.03043 0.644531C3.71482 0.644531 0.142578 4.18607 0.142578 8.50166C0.142578 12.8172 3.71482 16.3588 8.03043 16.3588Z" fill="#637381"/>
</svg>
