<svg width="19" height="21" viewBox="0 0 19 21" fill="none" xmlns="http://www.w3.org/2000/svg">
<path d="M7.03809 17.6016C7.03809 18.0599 7.10541 18.8388 7.7026 19.2535C8.2998 19.6682 9.03328 19.8932 9.78809 19.8932C10.5429 19.8932 11.2764 19.6682 11.8736 19.2535C12.4708 18.8388 12.5381 18.0599 12.5381 17.6016" stroke="#637381" stroke-width="1.5" stroke-linecap="round" stroke-linejoin="round"/>
<path d="M3.60076 7.89453C3.60076 4.47727 6.371 1.70703 9.78826 1.70703V0.332031C5.61161 0.332031 2.22576 3.71788 2.22576 7.89453V10.743C2.22576 11.4228 2.00525 12.0844 1.59732 12.6283L1.35618 12.9498C1.10009 13.2913 0.720926 13.894 0.864522 14.6009C1.09334 15.7271 2.0733 16.1262 2.88353 16.272C3.55165 16.3923 4.32744 16.3836 4.94527 16.3766C5.07949 16.3751 5.20628 16.3737 5.32287 16.3737H9.78826V14.9987H5.32287C5.17314 14.9987 5.0228 15.0002 4.87291 15.0016C4.25936 15.0076 3.6532 15.0135 3.12713 14.9188C2.46949 14.8004 2.26506 14.5883 2.212 14.3271C2.20497 14.2925 2.20446 14.2338 2.24312 14.1337C2.28328 14.0297 2.35494 13.9098 2.45618 13.7748L2.69732 13.4533C3.28375 12.6714 3.60076 11.7204 3.60076 10.743V7.89453Z" fill="#637381"/>
<path d="M15.9765 7.89453C15.9765 4.47727 13.2055 1.70703 9.78826 1.70703V0.332031C13.9649 0.332031 17.3515 3.71788 17.3515 7.89453V10.743C17.3515 11.4228 17.572 12.0844 17.9799 12.6283L18.2211 12.9498C18.4772 13.2913 18.8563 13.894 18.7127 14.6009C18.4839 15.7271 17.504 16.1262 16.6937 16.272C16.0256 16.3923 15.2498 16.3836 14.632 16.3766C14.4978 16.3751 14.371 16.3737 14.2544 16.3737H9.78826V14.9987H14.2544C14.4041 14.9987 14.5544 15.0002 14.7043 15.0016C15.3179 15.0076 15.924 15.0135 16.4501 14.9188C17.1078 14.8004 17.3122 14.5883 17.3653 14.3271C17.3723 14.2925 17.3728 14.2338 17.3341 14.1337C17.294 14.0297 17.2223 13.9098 17.1211 13.7748L16.8799 13.4533C16.2935 12.6714 15.9765 11.7204 15.9765 10.743V7.89453Z" fill="#637381"/>
</svg>
