<svg width="22" height="23" viewBox="0 0 22 23" fill="none" xmlns="http://www.w3.org/2000/svg">
<path d="M10.9915 5.6571C9.83536 5.65688 8.70525 5.9995 7.74394 6.6416C6.78261 7.2837 6.03329 8.19646 5.59074 9.26444C5.14819 10.3324 5.03228 11.5077 5.25768 12.6415C5.48307 13.7754 6.03964 14.8169 6.85701 15.6345C7.67437 16.452 8.71581 17.0088 9.84966 17.2343C10.9835 17.46 12.1587 17.3443 13.2267 16.902C14.2948 16.4597 15.2078 15.7105 15.8501 14.7494C16.4924 13.7881 16.8352 12.6581 16.8352 11.5021C16.8336 9.95253 16.2175 8.46697 15.1219 7.37123C14.0264 6.27547 12.5409 5.65901 10.9915 5.6571Z" fill="#202124"/>
<path d="M20.2818 10.4707H18.9079C18.6344 10.4707 18.372 10.5793 18.1786 10.7727C17.9852 10.9662 17.8765 11.2285 17.8765 11.5021C17.8765 11.7757 17.9852 12.038 18.1786 12.2314C18.372 12.4249 18.6344 12.5335 18.9079 12.5335H20.2818C20.5553 12.5335 20.8177 12.4249 21.0111 12.2314C21.2045 12.038 21.3131 11.7757 21.3131 11.5021C21.3131 11.2285 21.2045 10.9662 21.0111 10.7727C20.8177 10.5793 20.5553 10.4707 20.2818 10.4707Z" fill="#202124"/>
<path d="M10.9912 18.3745C10.7179 18.375 10.4558 18.4838 10.2626 18.6771C10.0693 18.8704 9.96072 19.1326 9.96045 19.4059V20.7811C9.96045 21.0545 10.0691 21.3166 10.2623 21.5099C10.4556 21.7032 10.7178 21.8117 10.9911 21.8117C11.2645 21.8117 11.5267 21.7032 11.7199 21.5099C11.9132 21.3166 12.0218 21.0545 12.0218 20.7811V19.4059C12.0216 19.1326 11.9129 18.8705 11.7198 18.6771C11.5266 18.4838 11.2646 18.375 10.9912 18.3745Z" fill="#202124"/>
<path d="M4.12283 11.5021C4.1226 11.2287 4.01395 10.9666 3.82071 10.7733C3.62748 10.5799 3.36544 10.4711 3.09208 10.4707H1.71843C1.44488 10.4707 1.18254 10.5793 0.989112 10.7727C0.795679 10.9662 0.687012 11.2285 0.687012 11.5021C0.687012 11.7757 0.795679 12.038 0.989112 12.2314C1.18254 12.4249 1.44488 12.5335 1.71843 12.5335H3.09209C3.36545 12.5331 3.62749 12.4243 3.82071 12.2309C4.01395 12.0376 4.1226 11.7755 4.12283 11.5021Z" fill="#202124"/>
<path d="M10.9911 4.62548C11.2644 4.62506 11.5264 4.51624 11.7196 4.32289C11.9129 4.12953 12.0216 3.86743 12.0218 3.59407V2.21889C12.0218 1.94554 11.9132 1.68339 11.7199 1.49011C11.5267 1.29682 11.2645 1.18823 10.9911 1.18823C10.7178 1.18823 10.4556 1.29682 10.2623 1.49011C10.0691 1.68339 9.96045 1.94554 9.96045 2.21889V3.59407C9.96063 3.86741 10.0693 4.12951 10.2625 4.32287C10.4557 4.51623 10.7177 4.62506 10.9911 4.62548Z" fill="#202124"/>
<path d="M17.3117 6.63915L18.2841 5.66677C18.3801 5.57114 18.4562 5.45751 18.5083 5.33238C18.5604 5.20726 18.5872 5.07309 18.5874 4.93757C18.5875 4.80205 18.5609 4.66784 18.5091 4.54261C18.4573 4.41737 18.3814 4.3036 18.2855 4.20777C18.1897 4.11194 18.0759 4.03595 17.9507 3.98415C17.8255 3.93235 17.6912 3.90576 17.5557 3.90588C17.4202 3.90602 17.286 3.93288 17.1609 3.98492C17.0358 4.03697 16.9221 4.11318 16.8265 4.20919L15.8541 5.1816C15.7581 5.27724 15.6819 5.39087 15.6298 5.516C15.5778 5.64113 15.551 5.77529 15.5508 5.91081C15.5507 6.04633 15.5773 6.18054 15.6291 6.30577C15.6809 6.431 15.7568 6.54478 15.8526 6.6406C15.9485 6.73643 16.0623 6.81241 16.1875 6.86422C16.3127 6.91602 16.447 6.94261 16.5825 6.94247C16.718 6.94234 16.8522 6.91548 16.9773 6.86344C17.1024 6.81139 17.2161 6.73518 17.3117 6.63915Z" fill="#202124"/>
<path d="M17.3119 16.365C17.2163 16.2691 17.1026 16.1929 16.9775 16.1408C16.8525 16.0888 16.7183 16.062 16.5828 16.0619C16.4473 16.0617 16.3131 16.0884 16.1879 16.1402C16.0627 16.192 15.9489 16.268 15.8531 16.3637C15.7572 16.4595 15.6813 16.5733 15.6295 16.6985C15.5777 16.8237 15.5511 16.9579 15.5513 17.0934C15.5514 17.2289 15.5782 17.3631 15.6302 17.4882C15.6823 17.6133 15.7584 17.7269 15.8544 17.8226L16.8268 18.795C16.9224 18.891 17.0361 18.9672 17.1611 19.0191C17.2862 19.0712 17.4204 19.098 17.5559 19.0982C17.6914 19.0983 17.8256 19.0717 17.9508 19.0199C18.076 18.9681 18.1898 18.8921 18.2856 18.7962C18.3815 18.7004 18.4574 18.5867 18.5092 18.4614C18.5611 18.3362 18.5876 18.202 18.5875 18.0665C18.5874 17.9311 18.5605 17.797 18.5085 17.6718C18.4565 17.5467 18.3803 17.433 18.2843 17.3374L17.3119 16.365Z" fill="#202124"/>
<path d="M4.67086 16.3649L3.69847 17.3373C3.60243 17.4329 3.52619 17.5466 3.47411 17.6717C3.42204 17.7968 3.39517 17.9309 3.39502 18.0665C3.39487 18.2021 3.42146 18.3363 3.47326 18.4615C3.52506 18.5868 3.60105 18.7005 3.69689 18.7964C3.79273 18.8922 3.90653 18.9682 4.03177 19.02C4.15702 19.0718 4.29125 19.0984 4.42678 19.0983C4.56232 19.0981 4.69649 19.0712 4.82163 19.0192C4.94676 18.9671 5.0604 18.8908 5.15603 18.7948L6.12843 17.8225C6.22441 17.7268 6.3006 17.6131 6.35262 17.4881C6.40463 17.3629 6.43147 17.2287 6.43159 17.0933C6.43171 16.9578 6.40511 16.8236 6.35331 16.6984C6.3015 16.5731 6.22553 16.4594 6.12971 16.3636C6.0339 16.2677 5.92013 16.1917 5.79492 16.1399C5.66971 16.0881 5.53552 16.0616 5.40002 16.0616C5.26452 16.0618 5.13037 16.0886 5.00525 16.1407C4.88013 16.1926 4.7665 16.2688 4.67086 16.3649Z" fill="#202124"/>
<path d="M4.67083 6.63905C4.76652 6.73488 4.88014 6.81093 5.00523 6.86283C5.1303 6.91473 5.26439 6.94148 5.3998 6.94154C5.53523 6.94159 5.66934 6.91496 5.79447 6.86316C5.91959 6.81137 6.03328 6.73542 6.12904 6.63966C6.2248 6.54391 6.30074 6.43021 6.35254 6.30509C6.40433 6.17996 6.43097 6.04585 6.43091 5.91043C6.43085 5.77501 6.4041 5.64092 6.3522 5.51585C6.3003 5.39077 6.22425 5.27714 6.12842 5.18146L5.15602 4.20906C5.06041 4.11291 4.94677 4.03658 4.82161 3.98443C4.69645 3.93229 4.56222 3.90534 4.42663 3.90515C4.29104 3.90497 4.15674 3.93153 4.03144 3.98333C3.90613 4.03514 3.79228 4.11115 3.6964 4.20703C3.60053 4.30291 3.52451 4.41676 3.47271 4.54207C3.4209 4.66738 3.39434 4.80167 3.39453 4.93726C3.39472 5.07286 3.42167 5.20708 3.47381 5.33224C3.52596 5.4574 3.6023 5.57104 3.69844 5.66665L4.67083 6.63905Z" fill="#202124"/>
</svg>
