<svg width="22" height="22" viewBox="0 0 22 22" fill="none" xmlns="http://www.w3.org/2000/svg">
<path fill-rule="evenodd" clip-rule="evenodd" d="M1.23169 3.61738V13.9496C1.23169 14.7757 1.90755 15.4515 2.73359 15.4515H7.92994V17.8377H5.64385C4.9394 17.8377 4.36308 18.2982 4.36308 18.861V19.8844H17.6369V18.861C17.6369 18.2982 17.0606 17.8377 16.3561 17.8377H14.07V15.4515H19.2663C20.0923 15.4515 20.7681 14.7757 20.7681 13.9496V3.61738C20.7681 2.79134 20.0922 2.11548 19.2663 2.11548H2.73359C1.90755 2.11548 1.23169 2.79134 1.23169 3.61738ZM11.828 9.07641C12.1375 9.15553 12.4296 9.27807 12.6976 9.43693L13.7859 8.64897L14.6568 9.5198L13.8688 10.6082C14.0277 10.8762 14.1501 11.1683 14.2293 11.4777L15.5558 11.69V12.2914H12.8196C12.8118 11.2931 12.0002 10.4861 10.9999 10.4861C9.99974 10.4861 9.18813 11.2931 9.18034 12.2914H6.44414V11.69L7.77061 11.4776C7.84975 11.1682 7.9722 10.8761 8.13109 10.6082L7.34306 9.5198L8.21397 8.64897L9.30225 9.43693C9.57028 9.27798 9.86234 9.1555 10.1718 9.07641L10.3841 7.75005H11.6157L11.828 9.07641ZM14.7906 7.27606C14.3713 7.27606 14.0314 6.93618 14.0314 6.51689C14.0314 6.09761 14.3713 5.75773 14.7906 5.75773C15.2098 5.75773 15.5497 6.09761 15.5497 6.51689C15.5497 6.93618 15.2098 7.27606 14.7906 7.27606ZM2.48761 12.9216V3.57969C2.48761 3.46515 2.58136 3.3714 2.6959 3.3714H19.3039C19.4185 3.3714 19.5122 3.46515 19.5122 3.57969V12.9216C13.8374 12.9216 8.16249 12.9216 2.48761 12.9216Z" fill="#637381"/>
</svg>
